<svg xmlns="http://www.w3.org/2000/svg" viewBox="0 0 120 144" role="img" aria-labelledby="title"><title>NFL logo</title><path d="M10 6h100v73c0 30-20 48-50 59C30 127 10 109 10 79V6z" fill="#fff" stroke="#d50a0a" stroke-width="8"/><path d="M14 10h92v58H14z" fill="#013369"/><g fill="#fff"><circle cx="29" cy="24" r="3"/><circle cx="45" cy="18" r="3"/><circle cx="75" cy="18" r="3"/><circle cx="91" cy="24" r="3"/><circle cx="31" cy="43" r="3"/><circle cx="46" cy="38" r="3"/><circle cx="74" cy="38" r="3"/><circle cx="89" cy="43" r="3"/></g><path d="M47 26c5-7 21-7 26 0-5 8-21 8-26 0zm13-8v16" fill="#fff" stroke="#fff" stroke-width="2" stroke-linecap="round"/><text x="60" y="108" text-anchor="middle" font-family="Arial,Helvetica,sans-serif" font-size="38" font-weight="900" font-style="italic" fill="#d50a0a">NFL</text></svg>